<?xml version="1.0" encoding="UTF-8"?>
<!DOCTYPE svg PUBLIC "-//W3C//DTD SVG 1.1//EN" "http://www.w3.org/Graphics/SVG/1.1/DTD/svg11.dtd">
<svg xmlns="http://www.w3.org/2000/svg" version="1.1" width="1200px" height="1200px" style="shape-rendering:geometricPrecision; text-rendering:geometricPrecision; image-rendering:optimizeQuality; fill-rule:evenodd; clip-rule:evenodd" xmlns:xlink="http://www.w3.org/1999/xlink">
<g><path style="opacity:0.991" fill="#c49840" d="M 214.5,47.5 C 286.335,47.1674 358.002,47.5008 429.5,48.5C 366.651,63.0147 303.317,78.0147 239.5,93.5C 238.702,93.9569 238.369,94.6236 238.5,95.5C 230.104,79.7499 222.104,63.7499 214.5,47.5 Z"/></g>
<g><path style="opacity:0.988" fill="#c49840" d="M 706.5,48.5 C 642.906,62.8266 579.24,77.8266 515.5,93.5C 514.056,92.019 513.389,92.3523 513.5,94.5C 505.352,79.5374 497.685,64.2041 490.5,48.5C 562.666,47.1682 634.666,47.1682 706.5,48.5 Z"/></g>
<g><path style="opacity:0.988" fill="#c49840" d="M 992.5,50.5 C 991.406,49.4183 990.073,48.7517 988.5,48.5C 925.538,63.7931 862.205,78.7931 798.5,93.5C 790.244,78.8021 782.911,63.4688 776.5,47.5C 848.167,47.3333 919.834,47.5 991.5,48C 992.252,48.6708 992.586,49.5041 992.5,50.5 Z"/></g>
<g><path style="opacity:1" fill="#b27f2b" d="M 214.5,47.5 C 222.104,63.7499 230.104,79.7499 238.5,95.5C 241.952,103.912 245.952,111.912 250.5,119.5C 253.697,128.226 257.697,136.56 262.5,144.5C 265.992,152.818 269.992,160.818 274.5,168.5C 277.341,175.516 280.674,182.182 284.5,188.5C 285.937,192.83 287.937,196.83 290.5,200.5C 293.046,207.923 296.379,214.923 300.5,221.5C 304.325,230.484 308.659,239.151 313.5,247.5C 314.015,249.894 314.681,252.228 315.5,254.5C 314.624,254.369 313.957,254.702 313.5,255.5C 294.931,293.805 275.931,331.972 256.5,370C 185.167,370.667 113.833,370.667 42.5,370C 42.0426,369.586 41.7093,369.086 41.5,368.5C 94.0961,261.877 146.596,155.21 199,48.5C 204.072,47.5286 209.238,47.1953 214.5,47.5 Z"/></g>
<g><path style="opacity:0.999" fill="#c99f46" d="M 429.5,48.5 C 433.97,55.7744 437.637,63.441 440.5,71.5C 440.389,72.1174 440.056,72.6174 439.5,73C 378.517,87.441 317.517,101.774 256.5,116C 253.848,116.353 251.848,117.52 250.5,119.5C 245.952,111.912 241.952,103.912 238.5,95.5C 238.369,94.6236 238.702,93.9569 239.5,93.5C 303.317,78.0147 366.651,63.0147 429.5,48.5 Z"/></g>
<g><path style="opacity:0.998" fill="#c99f46" d="M 706.5,48.5 C 710.437,56.0406 714.104,63.7072 717.5,71.5C 655.753,86.8873 593.753,101.721 531.5,116C 528.478,116.325 526.478,117.825 525.5,120.5C 521.306,111.918 517.306,103.251 513.5,94.5C 513.389,92.3523 514.056,92.019 515.5,93.5C 579.24,77.8266 642.906,62.8266 706.5,48.5 Z"/></g>
<g><path style="opacity:0.998" fill="#c99f46" d="M 992.5,50.5 C 996.155,57.091 999.822,63.7577 1003.5,70.5C 1002.69,71.4687 1001.69,72.3021 1000.5,73C 937.381,87.5971 874.381,102.597 811.5,118C 812.337,119.011 812.67,120.178 812.5,121.5C 807.403,112.397 802.736,103.064 798.5,93.5C 862.205,78.7931 925.538,63.7931 988.5,48.5C 990.073,48.7517 991.406,49.4183 992.5,50.5 Z"/></g>
<g><path style="opacity:1" fill="#cda54b" d="M 440.5,71.5 C 445.532,79.8929 450.199,88.5596 454.5,97.5C 453.175,98.9526 452.342,98.6192 452,96.5C 388.953,112.016 325.786,127.016 262.5,141.5C 262.5,142.5 262.5,143.5 262.5,144.5C 257.697,136.56 253.697,128.226 250.5,119.5C 251.848,117.52 253.848,116.353 256.5,116C 317.517,101.774 378.517,87.441 439.5,73C 440.056,72.6174 440.389,72.1174 440.5,71.5 Z"/></g>
<g><path style="opacity:0.999" fill="#cda54b" d="M 717.5,71.5 C 722.202,79.9124 726.536,88.5791 730.5,97.5C 666.086,112.028 601.753,126.861 537.5,142C 538.738,142.69 538.738,143.19 537.5,143.5C 533.513,135.908 529.513,128.241 525.5,120.5C 526.478,117.825 528.478,116.325 531.5,116C 593.753,101.721 655.753,86.8873 717.5,71.5 Z"/></g>
<g><path style="opacity:1" fill="#cda54b" d="M 1003.5,70.5 C 1008.11,80.0592 1012.45,89.7258 1016.5,99.5C 1014.53,97.685 1012.2,97.185 1009.5,98C 947.525,112.94 885.525,127.774 823.5,142.5C 824.55,143.429 824.55,144.095 823.5,144.5C 819.436,137.079 815.77,129.413 812.5,121.5C 812.67,120.178 812.337,119.011 811.5,118C 874.381,102.597 937.381,87.5971 1000.5,73C 1001.69,72.3021 1002.69,71.4687 1003.5,70.5 Z"/></g>
<g><path style="opacity:0.998" fill="#d2ab50" d="M 454.5,97.5 C 457.833,104.833 461.167,112.167 464.5,119.5C 464.389,120.117 464.056,120.617 463.5,121C 400.498,136.928 337.498,151.761 274.5,165.5C 274.5,166.5 274.5,167.5 274.5,168.5C 269.992,160.818 265.992,152.818 262.5,144.5C 262.5,143.5 262.5,142.5 262.5,141.5C 325.786,127.016 388.953,112.016 452,96.5C 452.342,98.6192 453.175,98.9526 454.5,97.5 Z"/></g>
<g><path style="opacity:0.996" fill="#d2ab50" d="M 730.5,97.5 C 734.788,104.351 738.122,111.684 740.5,119.5C 739.262,119.81 739.262,120.31 740.5,121C 676.15,136.885 612.15,151.719 548.5,165.5C 544.31,158.453 540.643,151.12 537.5,143.5C 538.738,143.19 538.738,142.69 537.5,142C 601.753,126.861 666.086,112.028 730.5,97.5 Z"/></g>
<g><path style="opacity:0.997" fill="#d2ab50" d="M 1016.5,99.5 C 1021.06,107.158 1025.06,115.158 1028.5,123.5C 1027.41,122.418 1026.07,121.752 1024.5,121.5C 961.482,136.935 898.482,151.602 835.5,165.5C 835.5,166.5 835.5,167.5 835.5,168.5C 831.099,160.747 827.099,152.747 823.5,144.5C 824.55,144.095 824.55,143.429 823.5,142.5C 885.525,127.774 947.525,112.94 1009.5,98C 1012.2,97.185 1014.53,97.685 1016.5,99.5 Z"/></g>
<g><path style="opacity:0.997" fill="#d6b155" d="M 740.5,119.5 C 745.063,127.171 749.063,135.171 752.5,143.5C 689.073,158.102 625.406,172.935 561.5,188C 560.944,188.383 560.611,188.883 560.5,189.5C 556.008,181.849 552.008,173.849 548.5,165.5C 612.15,151.719 676.15,136.885 740.5,121C 739.262,120.31 739.262,119.81 740.5,119.5 Z"/></g>
<g><path style="opacity:0.998" fill="#d6b155" d="M 464.5,119.5 C 468.886,127.665 472.886,135.998 476.5,144.5C 476.565,144.938 476.399,145.272 476,145.5C 475.311,144.643 474.478,143.977 473.5,143.5C 410.621,158.301 347.621,173.301 284.5,188.5C 280.674,182.182 277.341,175.516 274.5,168.5C 274.5,167.5 274.5,166.5 274.5,165.5C 337.498,151.761 400.498,136.928 463.5,121C 464.056,120.617 464.389,120.117 464.5,119.5 Z"/></g>
<g><path style="opacity:0.997" fill="#d6b155" d="M 1028.5,123.5 C 1032.67,130.516 1036.34,137.849 1039.5,145.5C 1038.27,145.279 1037.27,144.612 1036.5,143.5C 973.577,158.495 910.243,173.161 846.5,187.5C 846.5,188.5 846.5,189.5 846.5,190.5C 842.341,183.515 838.674,176.182 835.5,168.5C 835.5,167.5 835.5,166.5 835.5,165.5C 898.482,151.602 961.482,136.935 1024.5,121.5C 1026.07,121.752 1027.41,122.418 1028.5,123.5 Z"/></g>
<g><path style="opacity:1" fill="#d9b458" d="M 476.5,144.5 C 478.723,147.144 480.389,150.144 481.5,153.5C 480.942,154.79 479.942,155.623 478.5,156C 415.733,170.515 353.066,185.348 290.5,200.5C 287.937,196.83 285.937,192.83 284.5,188.5C 347.621,173.301 410.621,158.301 473.5,143.5C 474.478,143.977 475.311,144.643 476,145.5C 476.399,145.272 476.565,144.938 476.5,144.5 Z"/></g>
<g><path style="opacity:0.999" fill="#d9b558" d="M 752.5,143.5 C 754.867,146.904 756.867,150.571 758.5,154.5C 699.1,168.859 639.433,183.026 579.5,197C 574.773,198.077 570.439,199.577 566.5,201.5C 563.939,197.842 561.939,193.842 560.5,189.5C 560.611,188.883 560.944,188.383 561.5,188C 625.406,172.935 689.073,158.102 752.5,143.5 Z"/></g>
<g><path style="opacity:0.999" fill="#d9b558" d="M 1039.5,145.5 C 1041.67,148.515 1043.34,151.849 1044.5,155.5C 980.151,170.337 915.818,185.337 851.5,200.5C 849.32,197.474 847.653,194.14 846.5,190.5C 846.5,189.5 846.5,188.5 846.5,187.5C 910.243,173.161 973.577,158.495 1036.5,143.5C 1037.27,144.612 1038.27,145.279 1039.5,145.5 Z"/></g>
<g><path style="opacity:0.998" fill="#dcb95b" d="M 481.5,153.5 C 485.07,160.309 488.403,167.309 491.5,174.5C 428.475,189.393 365.475,204.393 302.5,219.5C 301.287,219.747 300.62,220.414 300.5,221.5C 296.379,214.923 293.046,207.923 290.5,200.5C 353.066,185.348 415.733,170.515 478.5,156C 479.942,155.623 480.942,154.79 481.5,153.5 Z"/></g>
<g><path style="opacity:0.997" fill="#dcb95b" d="M 758.5,154.5 C 762.361,160.888 765.694,167.554 768.5,174.5C 708.666,189.197 648.666,203.364 588.5,217C 583.976,218.291 579.643,219.791 575.5,221.5C 571.931,215.033 568.931,208.367 566.5,201.5C 570.439,199.577 574.773,198.077 579.5,197C 639.433,183.026 699.1,168.859 758.5,154.5 Z"/></g>
<g><path style="opacity:0.996" fill="#dcb85b" d="M 1044.5,155.5 C 1048.01,161.187 1051.01,167.187 1053.5,173.5C 1051.27,175.195 1048.6,176.362 1045.5,177C 984.465,191.339 923.465,205.673 862.5,220C 861.944,220.383 861.611,220.883 861.5,221.5C 857.401,214.964 854.067,207.964 851.5,200.5C 915.818,185.337 980.151,170.337 1044.5,155.5 Z"/></g>
<g><path style="opacity:0.997" fill="#e0bf61" d="M 768.5,174.5 C 773.387,183.944 778.054,193.611 782.5,203.5C 782.631,204.239 782.464,204.906 782,205.5C 781.213,204.289 780.546,203.289 780,202.5C 716.264,218.202 652.431,233.202 588.5,247.5C 584.199,238.899 579.866,230.232 575.5,221.5C 579.643,219.791 583.976,218.291 588.5,217C 648.666,203.364 708.666,189.197 768.5,174.5 Z"/></g>
<g><path style="opacity:0.997" fill="#e0bf61" d="M 491.5,174.5 C 496.026,182.218 500.026,190.218 503.5,198.5C 504.21,201.86 502.876,203.693 499.5,204C 437.46,218.614 375.46,233.114 313.5,247.5C 308.659,239.151 304.325,230.484 300.5,221.5C 300.62,220.414 301.287,219.747 302.5,219.5C 365.475,204.393 428.475,189.393 491.5,174.5 Z"/></g>
<g><path style="opacity:0.996" fill="#e0bf61" d="M 1053.5,173.5 C 1058.52,182.846 1063.19,192.512 1067.5,202.5C 1003.59,217.423 939.587,232.756 875.5,248.5C 870.072,239.979 865.405,230.979 861.5,221.5C 861.611,220.883 861.944,220.383 862.5,220C 923.465,205.673 984.465,191.339 1045.5,177C 1048.6,176.362 1051.27,175.195 1053.5,173.5 Z"/></g>
<g><path style="opacity:0.997" fill="#e4c465" d="M 1067.5,202.5 C 1071.75,210.006 1075.75,217.673 1079.5,225.5C 1017.75,240.079 956.087,254.579 894.5,269C 891.325,269.493 888.659,270.66 886.5,272.5C 882.334,264.828 878.667,256.828 875.5,248.5C 939.587,232.756 1003.59,217.423 1067.5,202.5 Z"/></g>
<g><path style="opacity:0.997" fill="#e4c465" d="M 503.5,198.5 C 508.675,207.516 513.341,216.849 517.5,226.5C 455.617,240.251 393.951,254.418 332.5,269C 329.471,269.575 326.804,270.741 324.5,272.5C 321.508,266.544 318.508,260.544 315.5,254.5C 314.681,252.228 314.015,249.894 313.5,247.5C 375.46,233.114 437.46,218.614 499.5,204C 502.876,203.693 504.21,201.86 503.5,198.5 Z"/></g>
<g><path style="opacity:0.998" fill="#e4c465" d="M 782.5,203.5 C 786.359,209.885 789.692,216.551 792.5,223.5C 791.596,224.209 791.263,225.209 791.5,226.5C 727.902,241.603 664.235,256.603 600.5,271.5C 596.133,263.767 592.133,255.767 588.5,247.5C 652.431,233.202 716.264,218.202 780,202.5C 780.546,203.289 781.213,204.289 782,205.5C 782.464,204.906 782.631,204.239 782.5,203.5 Z"/></g>
<g><path style="opacity:0.997" fill="#e9cb6b" d="M 517.5,226.5 C 522.9,236.588 527.9,246.922 532.5,257.5C 471.508,270.571 410.508,284.737 349.5,300C 345.855,300.719 342.188,301.219 338.5,301.5C 333.563,291.96 328.897,282.293 324.5,272.5C 326.804,270.741 329.471,269.575 332.5,269C 393.951,254.418 455.617,240.251 517.5,226.5 Z"/></g>
<g><path style="opacity:0.998" fill="#e9cb6b" d="M 792.5,223.5 C 798.038,234.246 803.371,245.246 808.5,256.5C 745.481,272.046 682.315,287.046 619,301.5C 617.467,301.227 615.967,300.894 614.5,300.5C 609.804,290.817 605.137,281.15 600.5,271.5C 664.235,256.603 727.902,241.603 791.5,226.5C 791.263,225.209 791.596,224.209 792.5,223.5 Z"/></g>
<g><path style="opacity:0.998" fill="#e9cb6b" d="M 1079.5,225.5 C 1083.73,235.062 1088.4,244.395 1093.5,253.5C 1092.55,254.919 1092.22,256.585 1092.5,258.5C 1032.35,271.605 972.346,285.439 912.5,300C 908.534,300.828 904.534,301.328 900.5,301.5C 895.833,291.833 891.167,282.167 886.5,272.5C 888.659,270.66 891.325,269.493 894.5,269C 956.087,254.579 1017.75,240.079 1079.5,225.5 Z"/></g>
<g><path style="opacity:0.998" fill="#eed170" d="M 532.5,257.5 C 537.396,266.163 541.729,275.163 545.5,284.5C 481.039,299.185 416.706,314.185 352.5,329.5C 347.655,320.328 342.989,310.995 338.5,301.5C 342.188,301.219 345.855,300.719 349.5,300C 410.508,284.737 471.508,270.571 532.5,257.5 Z"/></g>
<g><path style="opacity:0.998" fill="#eed170" d="M 808.5,256.5 C 813.615,265.065 817.948,274.065 821.5,283.5C 757.452,299.057 693.452,314.39 629.5,329.5C 623.946,320.21 618.946,310.543 614.5,300.5C 615.967,300.894 617.467,301.227 619,301.5C 682.315,287.046 745.481,272.046 808.5,256.5 Z"/></g>
<g><path style="opacity:0.999" fill="#eed170" d="M 1093.5,253.5 C 1098.13,263.439 1102.8,273.439 1107.5,283.5C 1043.98,299.089 980.317,314.256 916.5,329C 915.944,329.383 915.611,329.883 915.5,330.5C 910.277,321.056 905.277,311.389 900.5,301.5C 904.534,301.328 908.534,300.828 912.5,300C 972.346,285.439 1032.35,271.605 1092.5,258.5C 1092.22,256.585 1092.55,254.919 1093.5,253.5 Z"/></g>
<g><path style="opacity:0.997" fill="#f1d674" d="M 821.5,283.5 C 825.196,289.544 828.53,295.877 831.5,302.5C 829.341,304.34 826.675,305.507 823.5,306C 761.936,320.357 700.602,334.69 639.5,349C 640.738,349.69 640.738,350.19 639.5,350.5C 635.401,343.964 632.067,336.964 629.5,329.5C 693.452,314.39 757.452,299.057 821.5,283.5 Z"/></g>
<g><path style="opacity:0.997" fill="#f1d674" d="M 1107.5,283.5 C 1110.83,289.83 1114.17,296.163 1117.5,302.5C 1110.84,305.345 1103.84,307.512 1096.5,309C 1039.52,321.855 982.857,335.189 926.5,349C 925.748,349.671 925.414,350.504 925.5,351.5C 921.787,344.703 918.454,337.703 915.5,330.5C 915.611,329.883 915.944,329.383 916.5,329C 980.317,314.256 1043.98,299.089 1107.5,283.5 Z"/></g>
<g><path style="opacity:0.997" fill="#f1d674" d="M 545.5,284.5 C 549.381,290.754 552.714,297.421 555.5,304.5C 491.888,318.969 428.221,333.802 364.5,349C 363.748,349.671 363.414,350.504 363.5,351.5C 359.325,344.484 355.659,337.151 352.5,329.5C 416.706,314.185 481.039,299.185 545.5,284.5 Z"/></g>
<g><path style="opacity:0.997" fill="#f5db78" d="M 555.5,304.5 C 564.883,322.321 573.883,340.321 582.5,358.5C 581.183,358.179 579.849,357.846 578.5,357.5C 515.138,373.034 451.804,388.034 388.5,402.5C 379.449,386.062 371.116,369.062 363.5,351.5C 363.414,350.504 363.748,349.671 364.5,349C 428.221,333.802 491.888,318.969 555.5,304.5 Z"/></g>
<g><path style="opacity:0.997" fill="#f5db78" d="M 831.5,302.5 C 839.847,319.195 848.181,335.861 856.5,352.5C 854.121,353.562 854.121,354.895 856.5,356.5C 854.075,358.145 851.408,359.311 848.5,360C 788.112,373.977 727.779,388.144 667.5,402.5C 666.717,400.712 665.384,399.712 663.5,399.5C 655.151,383.524 647.151,367.191 639.5,350.5C 640.738,350.19 640.738,349.69 639.5,349C 700.602,334.69 761.936,320.357 823.5,306C 826.675,305.507 829.341,304.34 831.5,302.5 Z"/></g>
<g><path style="opacity:0.997" fill="#f5db78" d="M 1117.5,302.5 C 1125.47,319.1 1133.47,335.767 1141.5,352.5C 1141.29,354.144 1141.62,355.644 1142.5,357C 1079.67,372.867 1016.67,388.033 953.5,402.5C 952.06,401.048 950.394,400.048 948.5,399.5C 940.879,383.588 933.213,367.588 925.5,351.5C 925.414,350.504 925.748,349.671 926.5,349C 982.857,335.189 1039.52,321.855 1096.5,309C 1103.84,307.512 1110.84,305.345 1117.5,302.5 Z"/></g>
<g><path style="opacity:0.997" fill="#efd472" d="M 582.5,358.5 C 588.383,369.598 593.716,380.932 598.5,392.5C 534.966,407.004 471.633,422.004 408.5,437.5C 407.416,437.315 406.416,436.982 405.5,436.5C 399.341,425.515 393.674,414.182 388.5,402.5C 451.804,388.034 515.138,373.034 578.5,357.5C 579.849,357.846 581.183,358.179 582.5,358.5 Z"/></g>
<g><path style="opacity:0.998" fill="#efd472" d="M 856.5,352.5 C 862.818,365.759 869.151,379.092 875.5,392.5C 811.859,406.952 748.359,421.952 685,437.5C 683.697,437.022 682.531,436.355 681.5,435.5C 674.977,423.786 668.977,411.786 663.5,399.5C 665.384,399.712 666.717,400.712 667.5,402.5C 727.779,388.144 788.112,373.977 848.5,360C 851.408,359.311 854.075,358.145 856.5,356.5C 854.121,354.895 854.121,353.562 856.5,352.5 Z"/></g>
<g><path style="opacity:0.998" fill="#efd472" d="M 1141.5,352.5 C 1148.09,365.339 1154.42,378.339 1160.5,391.5C 1157.34,392.847 1154,394.014 1150.5,395C 1090.61,409.008 1030.78,423.174 971,437.5C 968.94,436.41 967.607,434.743 967,432.5C 966.617,433.056 966.117,433.389 965.5,433.5C 959.832,422.162 954.166,410.828 948.5,399.5C 950.394,400.048 952.06,401.048 953.5,402.5C 1016.67,388.033 1079.67,372.867 1142.5,357C 1141.62,355.644 1141.29,354.144 1141.5,352.5 Z"/></g>
<g><path style="opacity:0.997" fill="#ecd06f" d="M 598.5,392.5 C 601.199,396.559 603.532,400.893 605.5,405.5C 605.209,406.649 604.376,407.316 603,407.5C 539.387,422.375 476.22,437.375 413.5,452.5C 409.893,447.707 407.226,442.374 405.5,436.5C 406.416,436.982 407.416,437.315 408.5,437.5C 471.633,422.004 534.966,407.004 598.5,392.5 Z"/></g>
<g><path style="opacity:0.996" fill="#ecd06e" d="M 875.5,392.5 C 878.341,396.849 880.674,401.516 882.5,406.5C 879.386,407.956 876.052,409.122 872.5,410C 813.262,424.226 754.262,437.893 695.5,451C 693.119,451.223 691.453,452.39 690.5,454.5C 687.263,448.357 684.263,442.024 681.5,435.5C 682.531,436.355 683.697,437.022 685,437.5C 748.359,421.952 811.859,406.952 875.5,392.5 Z"/></g>
<g><path style="opacity:0.997" fill="#eccf6f" d="M 1160.5,391.5 C 1163.67,396.516 1166.34,401.849 1168.5,407.5C 1105.1,422.146 1041.77,436.979 978.5,452C 977.619,452.708 976.953,453.542 976.5,454.5C 973.025,447.414 969.358,440.414 965.5,433.5C 966.117,433.389 966.617,433.056 967,432.5C 967.607,434.743 968.94,436.41 971,437.5C 1030.78,423.174 1090.61,409.008 1150.5,395C 1154,394.014 1157.34,392.847 1160.5,391.5 Z"/></g>
<g><path style="opacity:0.998" fill="#e9cb6b" d="M 605.5,405.5 C 613.999,421.834 621.999,438.5 629.5,455.5C 557.833,455.5 486.167,455.5 414.5,455.5C 413.596,454.791 413.263,453.791 413.5,452.5C 476.22,437.375 539.387,422.375 603,407.5C 604.376,407.316 605.209,406.649 605.5,405.5 Z"/></g>
<g><path style="opacity:0.998" fill="#e9cb6b" d="M 882.5,406.5 C 891.232,422.303 899.232,438.636 906.5,455.5C 834.5,455.5 762.5,455.5 690.5,455.5C 690.5,455.167 690.5,454.833 690.5,454.5C 691.453,452.39 693.119,451.223 695.5,451C 754.262,437.893 813.262,424.226 872.5,410C 876.052,409.122 879.386,407.956 882.5,406.5 Z"/></g>
<g><path style="opacity:0.998" fill="#e9cb6b" d="M 1168.5,407.5 C 1176.55,422.655 1184.22,437.988 1191.5,453.5C 1120.51,455.497 1049.17,456.163 977.5,455.5C 977.167,455.5 976.833,455.5 976.5,455.5C 976.5,455.167 976.5,454.833 976.5,454.5C 976.953,453.542 977.619,452.708 978.5,452C 1041.77,436.979 1105.1,422.146 1168.5,407.5 Z"/></g>
<g><path style="opacity:1" fill="#cea54b" d="M 1191.5,453.5 C 1192.4,454.209 1192.74,455.209 1192.5,456.5C 1146.5,456.5 1100.5,456.5 1054.5,456.5C 1029.17,456.5 1003.83,456.5 978.5,456.5C 977.833,456.5 977.5,456.167 977.5,455.5C 1049.17,456.163 1120.51,455.497 1191.5,453.5 Z"/></g>
<g><path style="opacity:1" fill="#b27f2b" d="M -0.5,455.5 C 71.1674,455.333 142.834,455.5 214.5,456C 247.733,523.347 281.066,590.514 314.5,657.5C 314.416,660.327 313.75,662.994 312.5,665.5C 309.659,669.849 307.326,674.516 305.5,679.5C 299.285,690.758 293.619,702.425 288.5,714.5C 285.326,719.516 282.659,724.849 280.5,730.5C 276.659,736.849 273.325,743.516 270.5,750.5C 266.28,758.611 262.28,766.945 258.5,775.5C 254.659,781.849 251.325,788.516 248.5,795.5C 243.974,803.218 239.974,811.218 236.5,819.5C 229.279,833.61 222.279,847.943 215.5,862.5C 214.662,862.842 214.328,863.508 214.5,864.5C 209.238,864.805 204.072,864.471 199,863.5C 132.768,728.266 66.2683,593.266 -0.5,458.5C -0.5,457.5 -0.5,456.5 -0.5,455.5 Z"/></g>
<g><path style="opacity:0.997" fill="#bf923b" d="M 414.5,455.5 C 486.167,455.5 557.833,455.5 629.5,455.5C 630.833,455.833 630.833,456.167 629.5,456.5C 572.832,456.333 516.166,456.5 459.5,457C 510.032,469.402 560.366,482.235 610.5,495.5C 605.425,506.65 600.091,517.65 594.5,528.5C 595.052,526.669 595.052,525.003 594.5,523.5C 532.149,507.498 469.816,491.498 407.5,475.5C 406.717,477.288 405.384,478.288 403.5,478.5C 406.91,470.681 410.577,463.014 414.5,455.5 Z"/></g>
<g><path style="opacity:0.999" fill="#b88732" d="M 629.5,456.5 C 623.953,469.926 617.62,482.926 610.5,495.5C 560.366,482.235 510.032,469.402 459.5,457C 516.166,456.5 572.832,456.333 629.5,456.5 Z"/></g>
<g><path style="opacity:0.998" fill="#b88732" d="M 906.5,456.5 C 899.705,471.087 892.705,485.421 885.5,499.5C 885.5,497.833 885.5,496.167 885.5,494.5C 835.539,482.072 785.539,469.572 735.5,457C 792.499,456.5 849.499,456.333 906.5,456.5 Z"/></g>
<g><path style="opacity:0.998" fill="#bc8c36" d="M 978.5,456.5 C 1003.83,456.5 1029.17,456.5 1054.5,456.5C 1094.58,467.191 1134.91,477.525 1175.5,487.5C 1175.5,488.5 1175.5,489.5 1175.5,490.5C 1172.87,496.749 1169.87,502.749 1166.5,508.5C 1166.78,504.962 1165.12,503.129 1161.5,503C 1100.25,487.937 1039.25,472.437 978.5,456.5 Z"/></g>
<g><path style="opacity:0.998" fill="#b68530" d="M 1054.5,456.5 C 1100.5,456.5 1146.5,456.5 1192.5,456.5C 1186.83,467.877 1181.16,479.211 1175.5,490.5C 1175.5,489.5 1175.5,488.5 1175.5,487.5C 1134.91,477.525 1094.58,467.191 1054.5,456.5 Z"/></g>
<g><path style="opacity:0.997" fill="#bf923b" d="M 690.5,455.5 C 762.5,455.5 834.5,455.5 906.5,455.5C 907.833,455.833 907.833,456.167 906.5,456.5C 849.499,456.333 792.499,456.5 735.5,457C 785.539,469.572 835.539,482.072 885.5,494.5C 885.5,496.167 885.5,497.833 885.5,499.5C 881.018,508.96 876.351,518.293 871.5,527.5C 871.33,526.178 871.663,525.011 872.5,524C 809.935,507.869 747.269,492.036 684.5,476.5C 683.133,477.225 681.8,477.892 680.5,478.5C 683.882,470.807 687.216,463.14 690.5,455.5 Z"/></g>
<g><path style="opacity:0.998" fill="#bf913a" d="M 976.5,455.5 C 976.833,455.5 977.167,455.5 977.5,455.5C 977.5,456.167 977.833,456.5 978.5,456.5C 1039.25,472.437 1100.25,487.937 1161.5,503C 1165.12,503.129 1166.78,504.962 1166.5,508.5C 1165.01,512.818 1163.01,516.818 1160.5,520.5C 1160.42,519.25 1159.76,518.417 1158.5,518C 1096.06,502.04 1033.56,486.206 971,470.5C 970.617,471.056 970.117,471.389 969.5,471.5C 971.454,465.962 973.787,460.628 976.5,455.5 Z"/></g>
<g><path style="opacity:0.997" fill="#c59941" d="M 594.5,528.5 C 592.343,534.146 589.677,539.48 586.5,544.5C 585.402,543.603 585.402,542.77 586.5,542C 525.145,526.221 463.478,510.555 401.5,495C 399.45,494.584 398.116,493.417 397.5,491.5C 399.229,487.042 401.229,482.709 403.5,478.5C 405.384,478.288 406.717,477.288 407.5,475.5C 469.816,491.498 532.149,507.498 594.5,523.5C 595.052,525.003 595.052,526.669 594.5,528.5 Z"/></g>
<g><path style="opacity:0.998" fill="#c59941" d="M 871.5,527.5 C 869.341,533.151 866.674,538.484 863.5,543.5C 863.631,542.624 863.298,541.957 862.5,541.5C 800.973,525.659 739.139,509.992 677,494.5C 676.055,494.095 675.388,493.428 675,492.5C 674.292,493.381 673.458,494.047 672.5,494.5C 674.659,488.849 677.326,483.516 680.5,478.5C 681.8,477.892 683.133,477.225 684.5,476.5C 747.269,492.036 809.935,507.869 872.5,524C 871.663,525.011 871.33,526.178 871.5,527.5 Z"/></g>
<g><path style="opacity:0.997" fill="#c49840" d="M 1160.5,520.5 C 1157.4,527.691 1154.07,534.691 1150.5,541.5C 1086.65,525.788 1022.65,509.788 958.5,493.5C 961.641,485.885 965.308,478.551 969.5,471.5C 970.117,471.389 970.617,471.056 971,470.5C 1033.56,486.206 1096.06,502.04 1158.5,518C 1159.76,518.417 1160.42,519.25 1160.5,520.5 Z"/></g>
<g><path style="opacity:0.998" fill="#c99f46" d="M 397.5,491.5 C 398.116,493.417 399.45,494.584 401.5,495C 463.478,510.555 525.145,526.221 586.5,542C 585.402,542.77 585.402,543.603 586.5,544.5C 584.774,550.374 582.107,555.707 578.5,560.5C 576.239,558.745 573.572,557.578 570.5,557C 509.176,541.85 448.176,526.683 387.5,511.5C 390.325,504.516 393.659,497.849 397.5,491.5 Z"/></g>
<g><path style="opacity:0.997" fill="#c99f46" d="M 863.5,543.5 C 861.239,550 858.239,556 854.5,561.5C 854.5,560.5 854.5,559.5 854.5,558.5C 791.504,543.303 728.671,527.303 666,510.5C 665.292,511.381 664.458,512.047 663.5,512.5C 666.502,506.491 669.502,500.491 672.5,494.5C 673.458,494.047 674.292,493.381 675,492.5C 675.388,493.428 676.055,494.095 677,494.5C 739.139,509.992 800.973,525.659 862.5,541.5C 863.298,541.957 863.631,542.624 863.5,543.5 Z"/></g>
<g><path style="opacity:0.996" fill="#c99f46" d="M 958.5,493.5 C 1022.65,509.788 1086.65,525.788 1150.5,541.5C 1147.49,547.574 1144.49,553.574 1141.5,559.5C 1077.83,542.891 1013.83,526.891 949.5,511.5C 952.13,505.251 955.13,499.251 958.5,493.5 Z"/></g>
<g><path style="opacity:0.999" fill="#cea64c" d="M 578.5,560.5 C 576.535,567.097 573.535,573.097 569.5,578.5C 569.53,577.503 569.03,576.836 568,576.5C 504.504,560.335 441.337,544.335 378.5,528.5C 381.247,522.672 384.247,517.005 387.5,511.5C 448.176,526.683 509.176,541.85 570.5,557C 573.572,557.578 576.239,558.745 578.5,560.5 Z"/></g>
<g><path style="opacity:0.999" fill="#cea64c" d="M 854.5,561.5 C 852.73,566.833 850.397,571.833 847.5,576.5C 783.487,561.28 719.987,545.28 657,528.5C 656.292,529.381 655.458,530.047 654.5,530.5C 657.508,524.456 660.508,518.456 663.5,512.5C 664.458,512.047 665.292,511.381 666,510.5C 728.671,527.303 791.504,543.303 854.5,558.5C 854.5,559.5 854.5,560.5 854.5,561.5 Z"/></g>
<g><path style="opacity:0.998" fill="#cea64c" d="M 949.5,511.5 C 1013.83,526.891 1077.83,542.891 1141.5,559.5C 1138.5,565.509 1135.5,571.509 1132.5,577.5C 1068.53,560.991 1004.86,544.658 941.5,528.5C 943.804,522.55 946.471,516.883 949.5,511.5 Z"/></g>
<g><path style="opacity:0.996" fill="#d2ab50" d="M 378.5,528.5 C 441.337,544.335 504.504,560.335 568,576.5C 569.03,576.836 569.53,577.503 569.5,578.5C 567.733,583.821 565.399,588.821 562.5,593.5C 561.417,593.539 560.417,593.873 559.5,594.5C 496.076,577.782 432.742,561.782 369.5,546.5C 373.027,540.779 376.027,534.779 378.5,528.5 Z"/></g>
<g><path style="opacity:0.996" fill="#d2ab50" d="M 847.5,576.5 C 844.357,583.263 841.024,589.93 837.5,596.5C 836.878,594.665 835.544,593.498 833.5,593C 770.92,577.056 708.586,561.556 646.5,546.5C 649.167,541.167 651.833,535.833 654.5,530.5C 655.458,530.047 656.292,529.381 657,528.5C 719.987,545.28 783.487,561.28 847.5,576.5 Z"/></g>
<g><path style="opacity:0.996" fill="#d2ab50" d="M 941.5,528.5 C 1004.86,544.658 1068.53,560.991 1132.5,577.5C 1130.01,583.818 1127.01,589.818 1123.5,595.5C 1118.48,593.069 1113.14,591.236 1107.5,590C 1049.08,575.552 990.743,561.052 932.5,546.5C 934.992,540.182 937.992,534.182 941.5,528.5 Z"/></g>
<g><path style="opacity:0.996" fill="#d6b155" d="M 562.5,593.5 C 559.357,600.263 556.024,606.93 552.5,613.5C 552.5,612.167 552.5,610.833 552.5,609.5C 489.863,594.216 427.363,578.549 365,562.5C 363.923,563.429 362.756,564.096 361.5,564.5C 364.167,558.5 366.833,552.5 369.5,546.5C 432.742,561.782 496.076,577.782 559.5,594.5C 560.417,593.873 561.417,593.539 562.5,593.5 Z"/></g>
<g><path style="opacity:0.997" fill="#d6b155" d="M 837.5,596.5 C 835.104,602.292 832.437,607.959 829.5,613.5C 828.566,612.432 828.232,611.099 828.5,609.5C 783.17,598.334 737.837,587.167 692.5,576C 674.673,571.342 657.006,566.509 639.5,561.5C 641.278,556.132 643.611,551.132 646.5,546.5C 708.586,561.556 770.92,577.056 833.5,593C 835.544,593.498 836.878,594.665 837.5,596.5 Z"/></g>
<g><path style="opacity:0.996" fill="#d6b155" d="M 932.5,546.5 C 990.743,561.052 1049.08,575.552 1107.5,590C 1113.14,591.236 1118.48,593.069 1123.5,595.5C 1121.35,601.968 1118.35,607.968 1114.5,613.5C 1113.21,612.527 1113.21,611.527 1114.5,610.5C 1051.58,594.019 988.576,578.019 925.5,562.5C 925.869,564.993 925.203,565.66 923.5,564.5C 926.005,558.156 929.005,552.156 932.5,546.5 Z"/></g>
<g><path style="opacity:0.996" fill="#dbb75a" d="M 552.5,613.5 C 549.573,621.333 545.906,628.667 541.5,635.5C 540.878,633.665 539.544,632.498 537.5,632C 475.197,616.626 412.863,601.126 350.5,585.5C 353.928,578.308 357.595,571.308 361.5,564.5C 362.756,564.096 363.923,563.429 365,562.5C 427.363,578.549 489.863,594.216 552.5,609.5C 552.5,610.833 552.5,612.167 552.5,613.5 Z"/></g>
<g><path style="opacity:0.995" fill="#dbb85b" d="M 639.5,561.5 C 657.006,566.509 674.673,571.342 692.5,576C 737.837,587.167 783.17,598.334 828.5,609.5C 828.232,611.099 828.566,612.432 829.5,613.5C 826.216,621.014 822.55,628.347 818.5,635.5C 817.251,633.864 815.584,632.697 813.5,632C 752.102,617.083 690.769,601.583 629.5,585.5C 628.482,586.193 627.482,586.859 626.5,587.5C 630.31,578.547 634.643,569.88 639.5,561.5 Z"/></g>
<g><path style="opacity:0.996" fill="#dbb85b" d="M 1114.5,613.5 C 1111.55,620.703 1108.21,627.703 1104.5,634.5C 1104.61,632.352 1103.94,632.019 1102.5,633.5C 1040.66,617.571 978.664,601.738 916.5,586C 915.619,585.292 914.953,584.458 914.5,583.5C 916.937,576.832 919.937,570.498 923.5,564.5C 925.203,565.66 925.869,564.993 925.5,562.5C 988.576,578.019 1051.58,594.019 1114.5,610.5C 1113.21,611.527 1113.21,612.527 1114.5,613.5 Z"/></g>
<g><path style="opacity:0.998" fill="#e0bf61" d="M 818.5,635.5 C 815.341,643.151 811.675,650.484 807.5,657.5C 807.264,655.951 807.264,654.451 807.5,653C 744.284,636.632 680.951,620.799 617.5,605.5C 619.973,599.221 622.973,593.221 626.5,587.5C 627.482,586.859 628.482,586.193 629.5,585.5C 690.769,601.583 752.102,617.083 813.5,632C 815.584,632.697 817.251,633.864 818.5,635.5 Z"/></g>
<g><path style="opacity:0.998" fill="#e0bf61" d="M 914.5,583.5 C 914.953,584.458 915.619,585.292 916.5,586C 978.664,601.738 1040.66,617.571 1102.5,633.5C 1103.94,632.019 1104.61,632.352 1104.5,634.5C 1101.33,642.182 1097.66,649.515 1093.5,656.5C 1093.5,655.167 1093.5,653.833 1093.5,652.5C 1030.53,637.764 967.697,622.098 905,605.5C 904.623,606.942 903.79,607.942 902.5,608.5C 905.685,599.686 909.685,591.353 914.5,583.5 Z"/></g>
<g><path style="opacity:0.997" fill="#e0bf61" d="M 350.5,585.5 C 412.863,601.126 475.197,616.626 537.5,632C 539.544,632.498 540.878,633.665 541.5,635.5C 539.347,641.968 536.347,647.968 532.5,653.5C 470.766,638.319 409.099,622.819 347.5,607C 344.975,606.104 342.808,606.604 341,608.5C 340.617,607.944 340.117,607.611 339.5,607.5C 343.166,600.172 346.832,592.838 350.5,585.5 Z"/></g>
<g><path style="opacity:0.998" fill="#e4c465" d="M 617.5,605.5 C 680.951,620.799 744.284,636.632 807.5,653C 807.264,654.451 807.264,655.951 807.5,657.5C 805.659,662.516 803.326,667.182 800.5,671.5C 738.708,654.487 676.708,638.654 614.5,624C 613.09,622.628 611.423,621.795 609.5,621.5C 611.762,615.922 614.429,610.588 617.5,605.5 Z"/></g>
<g><path style="opacity:0.997" fill="#e4c465" d="M 1093.5,656.5 C 1091.77,662.374 1089.11,667.707 1085.5,672.5C 1085.42,671.25 1084.76,670.417 1083.5,670C 1020.39,654.098 957.723,637.932 895.5,621.5C 897.468,616.893 899.801,612.559 902.5,608.5C 903.79,607.942 904.623,606.942 905,605.5C 967.697,622.098 1030.53,637.764 1093.5,652.5C 1093.5,653.833 1093.5,655.167 1093.5,656.5 Z"/></g>
<g><path style="opacity:0.997" fill="#e4c465" d="M 532.5,653.5 C 530.599,659.539 527.933,665.206 524.5,670.5C 470.582,656.608 416.249,643.108 361.5,630C 352.164,627.231 342.83,624.398 333.5,621.5C 335.302,616.763 337.302,612.097 339.5,607.5C 340.117,607.611 340.617,607.944 341,608.5C 342.808,606.604 344.975,606.104 347.5,607C 409.099,622.819 470.766,638.319 532.5,653.5 Z"/></g>
<g><path style="opacity:0.998" fill="#e9cb6b" d="M 333.5,621.5 C 342.83,624.398 352.164,627.231 361.5,630C 416.249,643.108 470.582,656.608 524.5,670.5C 521.07,678.358 517.403,686.024 513.5,693.5C 451.78,677.651 389.446,661.818 326.5,646C 324.68,645.8 323.347,644.966 322.5,643.5C 325.42,635.707 329.086,628.374 333.5,621.5 Z"/></g>
<g><path style="opacity:0.998" fill="#e9cb6b" d="M 609.5,621.5 C 611.423,621.795 613.09,622.628 614.5,624C 676.708,638.654 738.708,654.487 800.5,671.5C 797.23,679.413 793.564,687.079 789.5,694.5C 788.466,693.313 787.133,692.48 785.5,692C 724.464,676.878 663.464,661.545 602.5,646C 601.058,645.623 600.058,644.79 599.5,643.5C 602.348,635.973 605.681,628.64 609.5,621.5 Z"/></g>
<g><path style="opacity:0.997" fill="#e9cb6b" d="M 895.5,621.5 C 957.723,637.932 1020.39,654.098 1083.5,670C 1084.76,670.417 1085.42,671.25 1085.5,672.5C 1082.23,680.413 1078.56,688.079 1074.5,695.5C 1073.6,694.791 1073.26,693.791 1073.5,692.5C 1010.25,677.253 947.251,661.253 884.5,644.5C 887.757,636.594 891.424,628.928 895.5,621.5 Z"/></g>
<g><path style="opacity:0.998" fill="#eed270" d="M 599.5,643.5 C 600.058,644.79 601.058,645.623 602.5,646C 663.464,661.545 724.464,676.878 785.5,692C 787.133,692.48 788.466,693.313 789.5,694.5C 786.53,701.123 783.196,707.456 779.5,713.5C 717.85,696.793 655.85,680.959 593.5,666C 592.333,665.5 591.5,664.667 591,663.5C 589.893,664.712 589.393,664.379 589.5,662.5C 592.47,655.877 595.804,649.544 599.5,643.5 Z"/></g>
<g><path style="opacity:0.998" fill="#eed270" d="M 884.5,644.5 C 947.251,661.253 1010.25,677.253 1073.5,692.5C 1073.26,693.791 1073.6,694.791 1074.5,695.5C 1072.02,701.787 1069.02,707.787 1065.5,713.5C 1004.2,697.392 942.203,681.558 879.5,666C 877.45,665.584 876.116,664.417 875.5,662.5C 877.754,656.035 880.754,650.035 884.5,644.5 Z"/></g>
<g><path style="opacity:0.999" fill="#eed170" d="M 322.5,643.5 C 323.347,644.966 324.68,645.8 326.5,646C 389.446,661.818 451.78,677.651 513.5,693.5C 510.197,701.118 506.53,708.451 502.5,715.5C 501.226,714.811 501.226,713.977 502.5,713C 439.145,696.161 375.811,680.328 312.5,665.5C 313.75,662.994 314.416,660.327 314.5,657.5C 317.167,652.833 319.833,648.167 322.5,643.5 Z"/></g>
<g><path style="opacity:0.996" fill="#f1d674" d="M 589.5,662.5 C 589.393,664.379 589.893,664.712 591,663.5C 591.5,664.667 592.333,665.5 593.5,666C 655.85,680.959 717.85,696.793 779.5,713.5C 778.054,718.392 776.054,723.059 773.5,727.5C 709.54,711.176 645.54,694.843 581.5,678.5C 584.199,673.101 586.866,667.768 589.5,662.5 Z"/></g>
<g><path style="opacity:0.997" fill="#f1d674" d="M 875.5,662.5 C 876.116,664.417 877.45,665.584 879.5,666C 942.203,681.558 1004.2,697.392 1065.5,713.5C 1063.44,718.625 1061.1,723.625 1058.5,728.5C 1056.35,727.068 1054.01,725.901 1051.5,725C 989.874,710.238 928.541,694.738 867.5,678.5C 869.659,672.849 872.326,667.516 875.5,662.5 Z"/></g>
<g><path style="opacity:0.998" fill="#f1d674" d="M 502.5,715.5 C 500.674,720.484 498.341,725.151 495.5,729.5C 494.596,728.791 494.263,727.791 494.5,726.5C 431.65,710.724 368.65,695.058 305.5,679.5C 307.326,674.516 309.659,669.849 312.5,665.5C 375.811,680.328 439.145,696.161 502.5,713C 501.226,713.977 501.226,714.811 502.5,715.5 Z"/></g>
<g><path style="opacity:0.998" fill="#f5db78" d="M 305.5,679.5 C 368.65,695.058 431.65,710.724 494.5,726.5C 494.263,727.791 494.596,728.791 495.5,729.5C 490.405,740.689 485.071,751.689 479.5,762.5C 477.616,762.712 476.283,763.712 475.5,765.5C 414.266,749.159 352.933,733.659 291.5,719C 289.561,718.092 288.561,716.592 288.5,714.5C 293.619,702.425 299.285,690.758 305.5,679.5 Z"/></g>
<g><path style="opacity:0.997" fill="#f5db78" d="M 581.5,678.5 C 645.54,694.843 709.54,711.176 773.5,727.5C 767.182,739.799 761.182,752.133 755.5,764.5C 754.07,764.421 752.736,764.754 751.5,765.5C 690.146,749.404 628.813,733.904 567.5,719C 565.714,717.804 564.381,716.304 563.5,714.5C 569.672,702.693 575.672,690.693 581.5,678.5 Z"/></g>
<g><path style="opacity:0.997" fill="#f5db78" d="M 867.5,678.5 C 928.541,694.738 989.874,710.238 1051.5,725C 1054.01,725.901 1056.35,727.068 1058.5,728.5C 1052.53,741.451 1046.2,754.118 1039.5,766.5C 978.11,749.9 916.11,734.067 853.5,719C 851.532,717.539 850.198,715.705 849.5,713.5C 855.261,701.642 861.261,689.976 867.5,678.5 Z"/></g>
<g><path style="opacity:0.996" fill="#f1d674" d="M 563.5,714.5 C 564.381,716.304 565.714,717.804 567.5,719C 628.813,733.904 690.146,749.404 751.5,765.5C 752.736,764.754 754.07,764.421 755.5,764.5C 752.991,770.192 749.991,775.526 746.5,780.5C 685.052,764.572 623.385,749.072 561.5,734C 559.779,733.261 558.113,732.427 556.5,731.5C 557.55,730.571 557.55,729.905 556.5,729.5C 559.026,724.59 561.359,719.59 563.5,714.5 Z"/></g>
<g><path style="opacity:0.998" fill="#f1d674" d="M 288.5,714.5 C 288.561,716.592 289.561,718.092 291.5,719C 352.933,733.659 414.266,749.159 475.5,765.5C 476.283,763.712 477.616,762.712 479.5,762.5C 477.027,768.779 474.027,774.779 470.5,780.5C 408.995,764.563 347.328,749.063 285.5,734C 283.24,733.451 281.574,732.284 280.5,730.5C 282.659,724.849 285.326,719.516 288.5,714.5 Z"/></g>
<g><path style="opacity:0.997" fill="#f1d674" d="M 849.5,713.5 C 850.198,715.705 851.532,717.539 853.5,719C 916.11,734.067 978.11,749.9 1039.5,766.5C 1037.67,771.484 1035.34,776.151 1032.5,780.5C 968.55,764.783 904.883,748.45 841.5,731.5C 844.167,725.5 846.833,719.5 849.5,713.5 Z"/></g>
<g><path style="opacity:0.999" fill="#edd06f" d="M 280.5,730.5 C 281.574,732.284 283.24,733.451 285.5,734C 347.328,749.063 408.995,764.563 470.5,780.5C 467.162,787.503 463.828,794.503 460.5,801.5C 397.394,785.909 334.394,769.909 271.5,753.5C 270.614,752.675 270.281,751.675 270.5,750.5C 273.325,743.516 276.659,736.849 280.5,730.5 Z"/></g>
<g><path style="opacity:0.996" fill="#edd06f" d="M 841.5,731.5 C 904.883,748.45 968.55,764.783 1032.5,780.5C 1029.33,788.182 1025.66,795.515 1021.5,802.5C 959.094,785.565 896.427,769.565 833.5,754.5C 832.151,754.846 830.817,755.179 829.5,755.5C 832.992,747.182 836.992,739.182 841.5,731.5 Z"/></g>
<g><path style="opacity:0.997" fill="#edd06f" d="M 556.5,729.5 C 557.55,729.905 557.55,730.571 556.5,731.5C 558.113,732.427 559.779,733.261 561.5,734C 623.385,749.072 685.052,764.572 746.5,780.5C 743.735,788.034 740.402,795.368 736.5,802.5C 673.743,785.893 610.743,769.727 547.5,754C 547.381,752.855 547.048,751.688 546.5,750.5C 549.575,743.351 552.908,736.351 556.5,729.5 Z"/></g>
<g><path style="opacity:0.999" fill="#e9cb6b" d="M 270.5,750.5 C 270.281,751.675 270.614,752.675 271.5,753.5C 334.394,769.909 397.394,785.909 460.5,801.5C 456.118,810.263 451.785,818.93 447.5,827.5C 447.389,826.883 447.056,826.383 446.5,826C 442.634,825.498 438.967,824.498 435.5,823C 376.681,808.379 317.681,793.879 258.5,779.5C 258.5,778.167 258.5,776.833 258.5,775.5C 262.28,766.945 266.28,758.611 270.5,750.5 Z"/></g>
<g><path style="opacity:0.998" fill="#e9cb6b" d="M 546.5,750.5 C 547.048,751.688 547.381,752.855 547.5,754C 610.743,769.727 673.743,785.893 736.5,802.5C 732.671,810.697 728.671,818.697 724.5,826.5C 660.52,811.156 596.52,795.156 532.5,778.5C 536.672,768.822 541.339,759.489 546.5,750.5 Z"/></g>
<g><path style="opacity:0.998" fill="#e9cb6b" d="M 1021.5,802.5 C 1017.87,811.072 1013.87,819.405 1009.5,827.5C 950.712,811.689 891.379,796.523 831.5,782C 827.886,780.68 824.219,779.513 820.5,778.5C 820.137,777.817 819.804,777.15 819.5,776.5C 822.046,769.077 825.379,762.077 829.5,755.5C 830.817,755.179 832.151,754.846 833.5,754.5C 896.427,769.565 959.094,785.565 1021.5,802.5 Z"/></g>
<g><path style="opacity:0.999" fill="#e4c465" d="M 258.5,775.5 C 258.5,776.833 258.5,778.167 258.5,779.5C 317.681,793.879 376.681,808.379 435.5,823C 438.967,824.498 442.634,825.498 446.5,826C 447.056,826.383 447.389,826.883 447.5,827.5C 444.53,834.123 441.196,840.456 437.5,846.5C 377.151,830.047 316.484,814.547 255.5,800C 253.608,799.027 251.608,798.36 249.5,798C 248.748,797.329 248.414,796.496 248.5,795.5C 251.325,788.516 254.659,781.849 258.5,775.5 Z"/></g>
<g><path style="opacity:0.997" fill="#e4c465" d="M 819.5,776.5 C 819.804,777.15 820.137,777.817 820.5,778.5C 824.219,779.513 827.886,780.68 831.5,782C 891.379,796.523 950.712,811.689 1009.5,827.5C 1007.34,833.151 1004.67,838.484 1001.5,843.5C 1000.24,843.904 999.077,844.571 998,845.5C 937.849,829.941 877.682,814.774 817.5,800C 814.524,799.295 811.858,798.129 809.5,796.5C 811.895,789.281 815.229,782.614 819.5,776.5 Z"/></g>
<g><path style="opacity:0.998" fill="#e4c465" d="M 532.5,778.5 C 596.52,795.156 660.52,811.156 724.5,826.5C 721.32,832.683 718.32,839.017 715.5,845.5C 652.183,830.053 588.85,814.386 525.5,798.5C 525.768,796.901 525.434,795.568 524.5,794.5C 526.659,788.849 529.326,783.516 532.5,778.5 Z"/></g>
<g><path style="opacity:0.998" fill="#dfbe60" d="M 248.5,795.5 C 248.414,796.496 248.748,797.329 249.5,798C 251.608,798.36 253.608,799.027 255.5,800C 316.484,814.547 377.151,830.047 437.5,846.5C 435.133,852.418 432.466,858.251 429.5,864C 424.511,864.499 419.511,864.666 414.5,864.5C 410.366,863.515 406.032,863.182 401.5,863.5C 347.083,849.271 292.583,835.271 238,821.5C 236.97,821.164 236.47,820.497 236.5,819.5C 239.974,811.218 243.974,803.218 248.5,795.5 Z"/></g>
<g><path style="opacity:0.998" fill="#dfbe60" d="M 524.5,794.5 C 525.434,795.568 525.768,796.901 525.5,798.5C 588.85,814.386 652.183,830.053 715.5,845.5C 712.5,851.5 709.5,857.5 706.5,863.5C 696.828,863.666 687.161,863.5 677.5,863C 623.403,849.309 569.403,835.643 515.5,822C 514.186,821.015 513.186,819.848 512.5,818.5C 516.516,810.469 520.516,802.469 524.5,794.5 Z"/></g>
<g><path style="opacity:0.997" fill="#dfbe60" d="M 809.5,796.5 C 811.858,798.129 814.524,799.295 817.5,800C 877.682,814.774 937.849,829.941 998,845.5C 999.077,844.571 1000.24,843.904 1001.5,843.5C 999.034,851.254 995.367,858.254 990.5,864.5C 981.676,863.67 972.676,863.17 963.5,863C 908.189,848.836 852.856,835.003 797.5,821.5C 801.128,812.928 805.128,804.595 809.5,796.5 Z"/></g>
<g><path style="opacity:1" fill="#dbb75a" d="M 236.5,819.5 C 236.47,820.497 236.97,821.164 238,821.5C 292.583,835.271 347.083,849.271 401.5,863.5C 339.331,863.832 277.331,863.499 215.5,862.5C 222.279,847.943 229.279,833.61 236.5,819.5 Z"/></g>
<g><path style="opacity:0.996" fill="#dbb75a" d="M 512.5,818.5 C 513.186,819.848 514.186,821.015 515.5,822C 569.403,835.643 623.403,849.309 677.5,863C 687.161,863.5 696.828,863.666 706.5,863.5C 634.666,864.832 562.666,864.832 490.5,863.5C 497.543,848.413 504.876,833.413 512.5,818.5 Z"/></g>
<g><path style="opacity:0.996" fill="#dcb95c" d="M 797.5,821.5 C 852.856,835.003 908.189,848.836 963.5,863C 972.676,863.17 981.676,863.67 990.5,864.5C 971.167,864.5 951.833,864.5 932.5,864.5C 918.339,863.669 904.006,863.169 889.5,863C 856.695,854.747 824.028,846.247 791.5,837.5C 789.995,840.131 789.329,839.797 789.5,836.5C 791.407,831.016 794.073,826.016 797.5,821.5 Z"/></g>
<g><path style="opacity:1" fill="#d8b357" d="M 789.5,836.5 C 789.329,839.797 789.995,840.131 791.5,837.5C 824.028,846.247 856.695,854.747 889.5,863C 904.006,863.169 918.339,863.669 932.5,864.5C 880.5,864.5 828.5,864.5 776.5,864.5C 776.687,862.436 777.187,860.436 778,858.5C 781.756,851.017 785.589,843.684 789.5,836.5 Z"/></g>
<g><path style="opacity:0.267" fill="#ca9f45" d="M 215.5,862.5 C 277.331,863.499 339.331,863.832 401.5,863.5C 406.032,863.182 410.366,863.515 414.5,864.5C 347.833,864.5 281.167,864.5 214.5,864.5C 214.328,863.508 214.662,862.842 215.5,862.5 Z"/></g>
<g><path style="opacity:0.979" fill="#5f6060" d="M 1008.5,954.5 C 1061.84,954.167 1115.17,954.5 1168.5,955.5C 1172.74,992.13 1160.74,1022.13 1132.5,1045.5C 1150.33,1074.5 1168.17,1103.5 1186,1132.5C 1188.73,1136.62 1190.89,1140.95 1192.5,1145.5C 1176.5,1145.67 1160.5,1145.5 1144.5,1145C 1127.67,1117.15 1110.51,1089.65 1093,1062.5C 1090.2,1063.19 1087.37,1063.69 1084.5,1064C 1073.17,1064.5 1061.84,1064.67 1050.5,1064.5C 1050.5,1091.5 1050.5,1118.5 1050.5,1145.5C 1036.5,1145.5 1022.5,1145.5 1008.5,1145.5C 1008.5,1104.5 1008.5,1063.5 1008.5,1022.5C 1033.84,1022.67 1059.17,1022.5 1084.5,1022C 1099.67,1018.75 1111.34,1010.59 1119.5,997.5C 1082.51,996.5 1045.51,996.167 1008.5,996.5C 1008.5,982.5 1008.5,968.5 1008.5,954.5 Z"/></g>
<g><path style="opacity:0.974" fill="#5e5f5f" d="M 4.5,955.5 C 61.1667,955.5 117.833,955.5 174.5,955.5C 174.5,969.5 174.5,983.5 174.5,997.5C 117.833,997.5 61.1667,997.5 4.5,997.5C 4.5,983.5 4.5,969.5 4.5,955.5 Z"/></g>
<g><path style="opacity:0.984" fill="#5f6060" d="M 301.5,954.5 C 322.503,954.333 343.503,954.5 364.5,955C 395.676,959.343 413.342,977.176 417.5,1008.5C 417.392,1009.44 417.059,1010.28 416.5,1011C 403.5,1011.67 390.5,1011.67 377.5,1011C 376.474,1005.28 373.474,1000.94 368.5,998C 345.167,997.333 321.833,997.333 298.5,998C 288.211,1003.25 285.378,1011.08 290,1021.5C 291.833,1024 294,1026.17 296.5,1028C 319.783,1029.29 343.117,1029.96 366.5,1030C 397.199,1036.87 413.866,1056.03 416.5,1087.5C 414.674,1116.31 400.008,1135.15 372.5,1144C 345.869,1145.61 319.202,1145.95 292.5,1145C 262.906,1138.31 247.573,1119.81 246.5,1089.5C 259.833,1089.5 273.167,1089.5 286.5,1089.5C 286.986,1095.31 289.653,1099.81 294.5,1103C 317.5,1103.67 340.5,1103.67 363.5,1103C 374.33,1097.53 377.163,1089.37 372,1078.5C 370.127,1076.29 367.96,1074.46 365.5,1073C 343.564,1071.7 321.564,1071.03 299.5,1071C 266.367,1066.04 248.701,1046.87 246.5,1013.5C 247.048,986.233 260.048,967.733 285.5,958C 290.954,956.745 296.287,955.578 301.5,954.5 Z"/></g>
<g><path style="opacity:0.98" fill="#5e5f5f" d="M 501.5,955.5 C 515.412,955.177 529.246,955.51 543,956.5C 543.5,978.831 543.667,1001.16 543.5,1023.5C 571.833,1023.5 600.167,1023.5 628.5,1023.5C 628.5,1000.83 628.5,978.167 628.5,955.5C 642.5,955.5 656.5,955.5 670.5,955.5C 670.5,1018.83 670.5,1082.17 670.5,1145.5C 656.5,1145.5 642.5,1145.5 628.5,1145.5C 628.5,1118.83 628.5,1092.17 628.5,1065.5C 600.167,1065.5 571.833,1065.5 543.5,1065.5C 543.667,1091.84 543.5,1118.17 543,1144.5C 529.246,1145.49 515.412,1145.82 501.5,1145.5C 501.5,1082.17 501.5,1018.83 501.5,955.5 Z"/></g>
<g><path style="opacity:0.978" fill="#5e5f5f" d="M 754.5,955.5 C 811.167,955.5 867.833,955.5 924.5,955.5C 924.5,969.5 924.5,983.5 924.5,997.5C 867.833,997.5 811.167,997.5 754.5,997.5C 754.5,983.5 754.5,969.5 754.5,955.5 Z"/></g>
<g><path style="opacity:0.976" fill="#5f6060" d="M 4.5,1023.5 C 55.5,1023.5 106.5,1023.5 157.5,1023.5C 157.823,1037.41 157.49,1051.25 156.5,1065C 119.835,1065.5 83.1682,1065.67 46.5,1065.5C 46.5,1078.17 46.5,1090.83 46.5,1103.5C 89.1667,1103.5 131.833,1103.5 174.5,1103.5C 174.5,1117.5 174.5,1131.5 174.5,1145.5C 117.833,1145.5 61.1667,1145.5 4.5,1145.5C 4.5,1104.83 4.5,1064.17 4.5,1023.5 Z"/></g>
<g><path style="opacity:0.982" fill="#5f6060" d="M 754.5,1023.5 C 805.5,1023.5 856.5,1023.5 907.5,1023.5C 907.823,1037.41 907.49,1051.25 906.5,1065C 869.835,1065.5 833.168,1065.67 796.5,1065.5C 796.5,1078.17 796.5,1090.83 796.5,1103.5C 839.167,1103.5 881.833,1103.5 924.5,1103.5C 924.5,1117.5 924.5,1131.5 924.5,1145.5C 867.833,1145.5 811.167,1145.5 754.5,1145.5C 754.5,1104.83 754.5,1064.17 754.5,1023.5 Z"/></g>
</svg>
